<svg xmlns="http://www.w3.org/2000/svg" xmlns:xlink="http://www.w3.org/1999/xlink" width="455" zoomAndPan="magnify" viewBox="0 0 341.25 341.249987" height="455" preserveAspectRatio="xMidYMid meet" version="1.0"><defs><filter x="0%" y="0%" width="100%" height="100%" id="1d8a582f30"><feColorMatrix values="0 0 0 0 1 0 0 0 0 1 0 0 0 0 1 0 0 0 1 0" color-interpolation-filters="sRGB"/></filter><clipPath id="c444783f95"><path d="M 0 0 L 340.5 0 L 340.5 340.5 L 0 340.5 Z M 0 0 " clip-rule="nonzero"/></clipPath><mask id="58a07d9b54"><g filter="url(#1d8a582f30)"><rect x="-34.125" width="409.5" fill="#000000" y="-34.124999" height="409.499984" fill-opacity="0.5"/></g></mask><clipPath id="8959b537e2"><path d="M 0 0 L 340.226562 0 L 340.226562 340.226562 L 0 340.226562 Z M 0 0 " clip-rule="nonzero"/></clipPath><clipPath id="ad070b7f2c"><path d="M 170.113281 0 C 76.164062 0 0 76.164062 0 170.113281 C 0 264.066406 76.164062 340.226562 170.113281 340.226562 C 264.066406 340.226562 340.226562 264.066406 340.226562 170.113281 C 340.226562 76.164062 264.066406 0 170.113281 0 Z M 170.113281 0 " clip-rule="nonzero"/></clipPath><clipPath id="82ab91cd28"><path d="M 0 0 L 340.226562 0 L 340.226562 340.226562 L 0 340.226562 Z M 0 0 " clip-rule="nonzero"/></clipPath><clipPath id="80c7427159"><path d="M 170.113281 0 C 76.164062 0 0 76.164062 0 170.113281 C 0 264.066406 76.164062 340.226562 170.113281 340.226562 C 264.066406 340.226562 340.226562 264.066406 340.226562 170.113281 C 340.226562 76.164062 264.066406 0 170.113281 0 Z M 170.113281 0 " clip-rule="nonzero"/></clipPath><clipPath id="7096734572"><rect x="0" width="341" y="0" height="341"/></clipPath><clipPath id="7169e5b7ad"><path d="M 0 0 L 340.222656 0 L 340.222656 340.222656 L 0 340.222656 Z M 0 0 " clip-rule="nonzero"/></clipPath><clipPath id="ac4f220c60"><path d="M 170.109375 0 C 76.160156 0 0 76.160156 0 170.109375 C 0 264.058594 76.160156 340.222656 170.109375 340.222656 C 264.058594 340.222656 340.222656 264.058594 340.222656 170.109375 C 340.222656 76.160156 264.058594 0 170.109375 0 Z M 170.109375 0 " clip-rule="nonzero"/></clipPath><clipPath id="4ef19a9acc"><rect x="0" width="341" y="0" height="341"/></clipPath><clipPath id="dc29e20754"><path d="M 18.042969 34.09375 L 89.546875 34.09375 L 89.546875 102.488281 L 18.042969 102.488281 Z M 18.042969 34.09375 " clip-rule="nonzero"/></clipPath><clipPath id="86f7391520"><path d="M 0.0507812 0.199219 L 129 0.199219 L 129 27 L 0.0507812 27 Z M 0.0507812 0.199219 " clip-rule="nonzero"/></clipPath><clipPath id="2b3ea4cf3f"><path d="M 118.832031 34.792969 L 186.921875 34.792969 L 186.921875 102.882812 L 118.832031 102.882812 Z M 118.832031 34.792969 " clip-rule="nonzero"/></clipPath><clipPath id="b2f710e9ca"><path d="M 152.878906 34.792969 C 134.074219 34.792969 118.832031 50.035156 118.832031 68.839844 C 118.832031 87.640625 134.074219 102.882812 152.878906 102.882812 C 171.679688 102.882812 186.921875 87.640625 186.921875 68.839844 C 186.921875 50.035156 171.679688 34.792969 152.878906 34.792969 Z M 152.878906 34.792969 " clip-rule="nonzero"/></clipPath><clipPath id="8bf42d6063"><path d="M 78 95 L 206.480469 95 L 206.480469 143 L 78 143 Z M 78 95 " clip-rule="nonzero"/></clipPath><clipPath id="1a83447dbe"><path d="M 27 0.199219 L 146 0.199219 L 146 174.054688 L 27 174.054688 Z M 27 0.199219 " clip-rule="nonzero"/></clipPath><clipPath id="9c769855c3"><rect x="0" width="207" y="0" height="175"/></clipPath></defs><g clip-path="url(#c444783f95)"><g mask="url(#58a07d9b54)"><g transform="matrix(1, 0, 0, 1, 0, 0)"><g clip-path="url(#4ef19a9acc)"><g clip-path="url(#8959b537e2)"><g clip-path="url(#ad070b7f2c)"><g transform="matrix(1, 0, 0, 1, 0, 0)"><g clip-path="url(#7096734572)"><g clip-path="url(#82ab91cd28)"><g clip-path="url(#80c7427159)"><path fill="#ffffff" d="M 0 0 L 340.226562 0 L 340.226562 340.226562 L 0 340.226562 Z M 0 0 " fill-opacity="1" fill-rule="nonzero"/></g></g></g></g></g></g><g clip-path="url(#7169e5b7ad)"><g clip-path="url(#ac4f220c60)"><path stroke-linecap="butt" transform="matrix(0.748355, 0, 0, 0.748355, 0.0000065, 0)" fill="none" stroke-linejoin="miter" d="M 227.310998 0 C 101.770054 0 -0.00000868571 101.770063 -0.00000868571 227.311007 C -0.00000868571 352.851951 101.770054 454.627234 227.310998 454.627234 C 352.851943 454.627234 454.627225 352.851951 454.627225 227.311007 C 454.627225 101.770063 352.851943 0 227.310998 0 Z M 227.310998 0 " stroke="#6c694c" stroke-width="16" stroke-opacity="1" stroke-miterlimit="4"/></g></g></g></g></g></g><g transform="matrix(1, 0, 0, 1, 67, 92)"><g clip-path="url(#9c769855c3)"><g clip-path="url(#dc29e20754)"><path stroke-linecap="butt" transform="matrix(1.036295, 0, 0, 1.036295, 18.041718, 34.091201)" fill="none" stroke-linejoin="miter" d="M 0.00120698 0.00245938 L 69.045987 0.00245938 L 69.045987 66.386017 L 0.00120698 66.386017 Z M 0.00120698 0.00245938 " stroke="#000000" stroke-width="5.777158" stroke-opacity="1" stroke-miterlimit="4"/></g><g clip-path="url(#86f7391520)"><path stroke-linecap="butt" transform="matrix(1.036293, -0.0021024, 0.0021024, 1.036293, 2.132936, 0.49967)" fill="none" stroke-linejoin="miter" d="M -0.000403421 1.998123 L 98.830674 1.998848 " stroke="#85a271" stroke-width="4" stroke-opacity="1" stroke-miterlimit="4"/></g><g clip-path="url(#2b3ea4cf3f)"><g clip-path="url(#b2f710e9ca)"><path stroke-linecap="butt" transform="matrix(1.036295, 0, 0, 1.036295, 118.83328, 34.794246)" fill="none" stroke-linejoin="miter" d="M 32.853209 -0.00123251 C 14.707138 -0.00123251 -0.00120546 14.707111 -0.00120546 32.853182 C -0.00120546 50.995483 14.707138 65.703827 32.853209 65.703827 C 50.99551 65.703827 65.703854 50.995483 65.703854 32.853182 C 65.703854 14.707111 50.99551 -0.00123251 32.853209 -0.00123251 Z M 32.853209 -0.00123251 " stroke="#85a271" stroke-width="5.777158" stroke-opacity="1" stroke-miterlimit="4"/></g></g><path stroke-linecap="butt" transform="matrix(1.036295, 0, 0, 1.036295, 127.006445, 63.662004)" fill="none" stroke-linejoin="miter" d="M 0.00131978 5.00026 L 49.938823 5.00026 " stroke="#000000" stroke-width="10" stroke-opacity="1" stroke-miterlimit="4"/><g clip-path="url(#8bf42d6063)"><path stroke-linecap="butt" transform="matrix(1.036293, -0.0021024, 0.0021024, 1.036293, 101.669798, 116.891896)" fill="none" stroke-linejoin="miter" d="M 0.00171528 2.000352 L 98.829023 2.001069 " stroke="#000000" stroke-width="4" stroke-opacity="1" stroke-miterlimit="4"/></g><g clip-path="url(#1a83447dbe)"><path stroke-linecap="butt" transform="matrix(0.00320146, 1.03629, -1.03629, 0.00320146, 91.190443, 34.078821)" fill="none" stroke-linejoin="miter" d="M -0.00104432 5.001134 L 129.803916 4.998814 " stroke="#000000" stroke-width="10" stroke-opacity="1" stroke-miterlimit="4"/></g></g></g></svg>