<svg xmlns="http://www.w3.org/2000/svg" xmlns:xlink="http://www.w3.org/1999/xlink" width="455" zoomAndPan="magnify" viewBox="0 0 341.25 341.249987" height="455" preserveAspectRatio="xMidYMid meet" version="1.0"><defs><filter x="0%" y="0%" width="100%" height="100%" id="db1c9685c2"><feColorMatrix values="0 0 0 0 1 0 0 0 0 1 0 0 0 0 1 0 0 0 1 0" color-interpolation-filters="sRGB"/></filter><clipPath id="057cdf2b3c"><path d="M 0 0 L 340.5 0 L 340.5 340.5 L 0 340.5 Z M 0 0 " clip-rule="nonzero"/></clipPath><mask id="9b4d8eceea"><g filter="url(#db1c9685c2)"><rect x="-34.125" width="409.5" fill="#000000" y="-34.124999" height="409.499984" fill-opacity="0.5"/></g></mask><clipPath id="8e94e1bf01"><path d="M 0 0 L 340.226562 0 L 340.226562 340.226562 L 0 340.226562 Z M 0 0 " clip-rule="nonzero"/></clipPath><clipPath id="bf61f46159"><path d="M 170.113281 0 C 76.164062 0 0 76.164062 0 170.113281 C 0 264.066406 76.164062 340.226562 170.113281 340.226562 C 264.066406 340.226562 340.226562 264.066406 340.226562 170.113281 C 340.226562 76.164062 264.066406 0 170.113281 0 Z M 170.113281 0 " clip-rule="nonzero"/></clipPath><clipPath id="bce6f18370"><path d="M 0 0 L 340.226562 0 L 340.226562 340.226562 L 0 340.226562 Z M 0 0 " clip-rule="nonzero"/></clipPath><clipPath id="55c47b7dba"><path d="M 170.113281 0 C 76.164062 0 0 76.164062 0 170.113281 C 0 264.066406 76.164062 340.226562 170.113281 340.226562 C 264.066406 340.226562 340.226562 264.066406 340.226562 170.113281 C 340.226562 76.164062 264.066406 0 170.113281 0 Z M 170.113281 0 " clip-rule="nonzero"/></clipPath><clipPath id="5d953e089f"><rect x="0" width="341" y="0" height="341"/></clipPath><clipPath id="cb3725c999"><path d="M 0 0 L 340.222656 0 L 340.222656 340.222656 L 0 340.222656 Z M 0 0 " clip-rule="nonzero"/></clipPath><clipPath id="47009405fa"><path d="M 170.109375 0 C 76.160156 0 0 76.160156 0 170.109375 C 0 264.058594 76.160156 340.222656 170.109375 340.222656 C 264.058594 340.222656 340.222656 264.058594 340.222656 170.109375 C 340.222656 76.160156 264.058594 0 170.109375 0 Z M 170.109375 0 " clip-rule="nonzero"/></clipPath><clipPath id="d2dd8b6350"><rect x="0" width="341" y="0" height="341"/></clipPath><clipPath id="65b2bb7c3c"><path d="M 201 102 L 259.664062 102 L 259.664062 177.390625 L 201 177.390625 Z M 201 102 " clip-rule="nonzero"/></clipPath><clipPath id="a7edc263dd"><path d="M 221 74 L 227 74 L 227 177.390625 L 221 177.390625 Z M 221 74 " clip-rule="nonzero"/></clipPath><clipPath id="cca40ce4f3"><path d="M 22 74 L 27 74 L 27 177.390625 L 22 177.390625 Z M 22 74 " clip-rule="nonzero"/></clipPath><clipPath id="e7693e7afc"><path d="M 6 55 L 11 55 L 11 177.390625 L 6 177.390625 Z M 6 55 " clip-rule="nonzero"/></clipPath><clipPath id="66905c5164"><path d="M 0.792969 0.660156 L 151 0.660156 L 151 117 L 0.792969 117 Z M 0.792969 0.660156 " clip-rule="nonzero"/></clipPath><clipPath id="614b0f8266"><path d="M 101 0.660156 L 216 0.660156 L 216 33 L 101 33 Z M 101 0.660156 " clip-rule="nonzero"/></clipPath><clipPath id="af50ace2a2"><path d="M 66 0.660156 L 184 0.660156 L 184 118 L 66 118 Z M 66 0.660156 " clip-rule="nonzero"/></clipPath><clipPath id="7591c8c6b4"><path d="M 56.882812 106.410156 L 92.753906 106.410156 L 92.753906 142.28125 L 56.882812 142.28125 Z M 56.882812 106.410156 " clip-rule="nonzero"/></clipPath><clipPath id="90a361ed89"><path d="M 74.820312 106.410156 C 64.914062 106.410156 56.882812 114.441406 56.882812 124.34375 C 56.882812 134.25 64.914062 142.28125 74.820312 142.28125 C 84.726562 142.28125 92.753906 134.25 92.753906 124.34375 C 92.753906 114.441406 84.726562 106.410156 74.820312 106.410156 Z M 74.820312 106.410156 " clip-rule="nonzero"/></clipPath><clipPath id="0700ec47bd"><path d="M 0.882812 0.410156 L 36.753906 0.410156 L 36.753906 36.28125 L 0.882812 36.28125 Z M 0.882812 0.410156 " clip-rule="nonzero"/></clipPath><clipPath id="4ebeb799e0"><path d="M 18.820312 0.410156 C 8.914062 0.410156 0.882812 8.441406 0.882812 18.34375 C 0.882812 28.25 8.914062 36.28125 18.820312 36.28125 C 28.726562 36.28125 36.753906 28.25 36.753906 18.34375 C 36.753906 8.441406 28.726562 0.410156 18.820312 0.410156 Z M 18.820312 0.410156 " clip-rule="nonzero"/></clipPath><clipPath id="45757df8fd"><rect x="0" width="37" y="0" height="37"/></clipPath><clipPath id="0f33892982"><path d="M 139.34375 23.5 L 175.214844 23.5 L 175.214844 59.375 L 139.34375 59.375 Z M 139.34375 23.5 " clip-rule="nonzero"/></clipPath><clipPath id="676b95fb69"><path d="M 157.277344 23.5 C 147.375 23.5 139.34375 31.53125 139.34375 41.4375 C 139.34375 51.34375 147.375 59.375 157.277344 59.375 C 167.183594 59.375 175.214844 51.34375 175.214844 41.4375 C 175.214844 31.53125 167.183594 23.5 157.277344 23.5 Z M 157.277344 23.5 " clip-rule="nonzero"/></clipPath><clipPath id="15182289be"><path d="M 0.34375 0.5 L 36.214844 0.5 L 36.214844 36.375 L 0.34375 36.375 Z M 0.34375 0.5 " clip-rule="nonzero"/></clipPath><clipPath id="55db5e7bc3"><path d="M 18.277344 0.5 C 8.375 0.5 0.34375 8.53125 0.34375 18.4375 C 0.34375 28.34375 8.375 36.375 18.277344 36.375 C 28.183594 36.375 36.214844 28.34375 36.214844 18.4375 C 36.214844 8.53125 28.183594 0.5 18.277344 0.5 Z M 18.277344 0.5 " clip-rule="nonzero"/></clipPath><clipPath id="0895563e53"><rect x="0" width="37" y="0" height="37"/></clipPath><clipPath id="a60b8f1901"><rect x="0" width="260" y="0" height="178"/></clipPath></defs><g clip-path="url(#057cdf2b3c)"><g mask="url(#9b4d8eceea)"><g transform="matrix(1, 0, 0, 1, 0, 0)"><g clip-path="url(#d2dd8b6350)"><g clip-path="url(#8e94e1bf01)"><g clip-path="url(#bf61f46159)"><g transform="matrix(1, 0, 0, 1, 0, 0)"><g clip-path="url(#5d953e089f)"><g clip-path="url(#bce6f18370)"><g clip-path="url(#55c47b7dba)"><path fill="#ffffff" d="M 0 0 L 340.226562 0 L 340.226562 340.226562 L 0 340.226562 Z M 0 0 " fill-opacity="1" fill-rule="nonzero"/></g></g></g></g></g></g><g clip-path="url(#cb3725c999)"><g clip-path="url(#47009405fa)"><path stroke-linecap="butt" transform="matrix(0.748355, 0, 0, 0.748355, 0.0000065, 0)" fill="none" stroke-linejoin="miter" d="M 227.310998 0 C 101.770054 0 -0.00000868571 101.770063 -0.00000868571 227.311007 C -0.00000868571 352.851951 101.770054 454.627234 227.310998 454.627234 C 352.851943 454.627234 454.627225 352.851951 454.627225 227.311007 C 454.627225 101.770063 352.851943 0 227.310998 0 Z M 227.310998 0 " stroke="#6c694c" stroke-width="16" stroke-opacity="1" stroke-miterlimit="4"/></g></g></g></g></g></g><g transform="matrix(1, 0, 0, 1, 38, 81)"><g clip-path="url(#a60b8f1901)"><path stroke-linecap="butt" transform="matrix(1.036295, -0.000000000000000257, 0.000000000000000257, 1.036295, 22.322157, 73.26923)" fill="none" stroke-linejoin="miter" d="M -0.00177979 2.001862 L 196.668604 2.001862 " stroke="#000000" stroke-width="4" stroke-opacity="1" stroke-miterlimit="4"/><g clip-path="url(#65b2bb7c3c)"><path stroke-linecap="butt" transform="matrix(0.574562, -0.86243, 0.86243, 0.574562, 222.844242, 172.620033)" fill="none" stroke-linejoin="miter" d="M 0.000347591 2.001172 L 55.071721 1.999651 " stroke="#85a271" stroke-width="4" stroke-opacity="1" stroke-miterlimit="4"/></g><g clip-path="url(#a7edc263dd)"><path stroke-linecap="butt" transform="matrix(0, 1.036295, -1.036295, 0, 226.123089, 76.604921)" fill="none" stroke-linejoin="miter" d="M 0.000528989 1.999727 L 94.914957 1.999727 " stroke="#000000" stroke-width="4" stroke-opacity="1" stroke-miterlimit="4"/></g><g clip-path="url(#cca40ce4f3)"><path stroke-linecap="butt" transform="matrix(0, 1.036295, -1.036295, 0, 26.462476, 76.604921)" fill="none" stroke-linejoin="miter" d="M 0.000528989 1.999286 L 94.914957 1.999286 " stroke="#000000" stroke-width="4" stroke-opacity="1" stroke-miterlimit="4"/></g><path stroke-linecap="butt" transform="matrix(1.036295, 0.000363302, -0.000363302, 1.036295, 124.467191, 139.670145)" fill="none" stroke-linejoin="miter" d="M -0.00156386 1.999472 L 64.798836 1.999371 " stroke="#000000" stroke-width="4" stroke-opacity="1" stroke-miterlimit="4"/><path stroke-linecap="butt" transform="matrix(1.036295, 0, 0, 1.036295, 140.512029, 116.876268)" fill="none" stroke-linejoin="miter" d="M -0.000299687 7.499956 L 32.812651 7.499956 " stroke="#000000" stroke-width="15" stroke-opacity="1" stroke-miterlimit="4"/><path stroke-linecap="butt" transform="matrix(-0.00657934, -1.036274, 1.036274, -0.00657934, 122.889696, 143.85193)" fill="none" stroke-linejoin="miter" d="M -0.00102687 1.998732 L 50.212644 2.000901 " stroke="#000000" stroke-width="4" stroke-opacity="1" stroke-miterlimit="4"/><g clip-path="url(#e7693e7afc)"><path stroke-linecap="butt" transform="matrix(0, 1.036295, -1.036295, 0, 10.42833, 58.063823)" fill="none" stroke-linejoin="miter" d="M -0.00127657 2.000261 L 112.806669 2.000261 " stroke="#000000" stroke-width="4" stroke-opacity="1" stroke-miterlimit="4"/></g><g clip-path="url(#66905c5164)"><path stroke-linecap="butt" transform="matrix(-1.036292, 0.0024855, -0.0024855, -1.036292, 92.067884, 63.239297)" fill="none" stroke-linejoin="miter" d="M 0.000743658 4.99927 L 82.732589 5.001687 " stroke="#85a271" stroke-width="10" stroke-opacity="1" stroke-miterlimit="4"/></g><g clip-path="url(#614b0f8266)"><path stroke-linecap="butt" transform="matrix(1.036295, 0.000363302, -0.000363302, 1.036295, 124.969099, 6.922791)" fill="none" stroke-linejoin="miter" d="M 0.00036477 2.000687 L 64.796995 2.000588 " stroke="#85a271" stroke-width="4" stroke-opacity="1" stroke-miterlimit="4"/></g><g clip-path="url(#af50ace2a2)"><path stroke-linecap="butt" transform="matrix(-0.00657934, -1.036274, 1.036274, -0.00657934, 120.023319, 58.982882)" fill="none" stroke-linejoin="miter" d="M 0.000749415 4.998494 L 50.21442 5.000663 " stroke="#000000" stroke-width="10" stroke-opacity="1" stroke-miterlimit="4"/></g><g clip-path="url(#7591c8c6b4)"><g clip-path="url(#90a361ed89)"><g transform="matrix(1, 0, 0, 1, 56, 106)"><g clip-path="url(#45757df8fd)"><g clip-path="url(#0700ec47bd)"><g clip-path="url(#4ebeb799e0)"><path fill="#85a271" d="M 0.882812 0.410156 L 36.753906 0.410156 L 36.753906 36.28125 L 0.882812 36.28125 Z M 0.882812 0.410156 " fill-opacity="1" fill-rule="nonzero"/></g></g></g></g></g></g><g clip-path="url(#0f33892982)"><g clip-path="url(#676b95fb69)"><g transform="matrix(1, 0, 0, 1, 139, 23)"><g clip-path="url(#0895563e53)"><g clip-path="url(#15182289be)"><g clip-path="url(#55db5e7bc3)"><path fill="#000000" d="M 0.34375 0.5 L 36.214844 0.5 L 36.214844 36.375 L 0.34375 36.375 Z M 0.34375 0.5 " fill-opacity="1" fill-rule="nonzero"/></g></g></g></g></g></g><path stroke-linecap="butt" transform="matrix(-1.036295, 0, 0, -1.036295, 248.195008, 129.829945)" fill="none" stroke-linejoin="miter" d="M -0.000294202 5.00003 L 18.221165 5.00003 " stroke="#000000" stroke-width="10" stroke-opacity="1" stroke-miterlimit="4"/></g></g></svg>