<svg xmlns="http://www.w3.org/2000/svg" xmlns:xlink="http://www.w3.org/1999/xlink" width="455" zoomAndPan="magnify" viewBox="0 0 341.25 341.249987" height="455" preserveAspectRatio="xMidYMid meet" version="1.0"><defs><filter x="0%" y="0%" width="100%" height="100%" id="73a4747288"><feColorMatrix values="0 0 0 0 1 0 0 0 0 1 0 0 0 0 1 0 0 0 1 0" color-interpolation-filters="sRGB"/></filter><clipPath id="518a6cdcfb"><path d="M 0 0 L 340.5 0 L 340.5 340.5 L 0 340.5 Z M 0 0 " clip-rule="nonzero"/></clipPath><mask id="90012926b2"><g filter="url(#73a4747288)"><rect x="-34.125" width="409.5" fill="#000000" y="-34.124999" height="409.499984" fill-opacity="0.5"/></g></mask><clipPath id="32355eb3f5"><path d="M 0 0 L 340.226562 0 L 340.226562 340.226562 L 0 340.226562 Z M 0 0 " clip-rule="nonzero"/></clipPath><clipPath id="e76f8ed9cf"><path d="M 170.113281 0 C 76.164062 0 0 76.164062 0 170.113281 C 0 264.066406 76.164062 340.226562 170.113281 340.226562 C 264.066406 340.226562 340.226562 264.066406 340.226562 170.113281 C 340.226562 76.164062 264.066406 0 170.113281 0 Z M 170.113281 0 " clip-rule="nonzero"/></clipPath><clipPath id="a4f74ab645"><path d="M 0 0 L 340.226562 0 L 340.226562 340.226562 L 0 340.226562 Z M 0 0 " clip-rule="nonzero"/></clipPath><clipPath id="0bc21470a3"><path d="M 170.113281 0 C 76.164062 0 0 76.164062 0 170.113281 C 0 264.066406 76.164062 340.226562 170.113281 340.226562 C 264.066406 340.226562 340.226562 264.066406 340.226562 170.113281 C 340.226562 76.164062 264.066406 0 170.113281 0 Z M 170.113281 0 " clip-rule="nonzero"/></clipPath><clipPath id="e0086ec863"><rect x="0" width="341" y="0" height="341"/></clipPath><clipPath id="2223884b8d"><path d="M 0 0 L 340.222656 0 L 340.222656 340.222656 L 0 340.222656 Z M 0 0 " clip-rule="nonzero"/></clipPath><clipPath id="64b300c9b9"><path d="M 170.109375 0 C 76.160156 0 0 76.160156 0 170.109375 C 0 264.058594 76.160156 340.222656 170.109375 340.222656 C 264.058594 340.222656 340.222656 264.058594 340.222656 170.109375 C 340.222656 76.160156 264.058594 0 170.109375 0 Z M 170.109375 0 " clip-rule="nonzero"/></clipPath><clipPath id="fcd141045c"><rect x="0" width="341" y="0" height="341"/></clipPath><clipPath id="13f13868bd"><path d="M 31 0.730469 L 240 0.730469 L 240 5 L 31 5 Z M 31 0.730469 " clip-rule="nonzero"/></clipPath><clipPath id="a9b2b476b8"><path d="M 232 0.730469 L 238 0.730469 L 238 104 L 232 104 Z M 232 0.730469 " clip-rule="nonzero"/></clipPath><clipPath id="4d7d3e804f"><path d="M 33 0.730469 L 38 0.730469 L 38 104 L 33 104 Z M 33 0.730469 " clip-rule="nonzero"/></clipPath><clipPath id="96322ee2c8"><path d="M 200.128906 101.28125 L 269.761719 101.28125 L 269.761719 169.378906 L 200.128906 169.378906 Z M 200.128906 101.28125 " clip-rule="nonzero"/></clipPath><clipPath id="3a349019df"><path d="M 0.128906 0.28125 L 69.761719 0.28125 L 69.761719 68.378906 L 0.128906 68.378906 Z M 0.128906 0.28125 " clip-rule="nonzero"/></clipPath><clipPath id="405cd5ffac"><rect x="0" width="70" y="0" height="69"/></clipPath><clipPath id="92a2970b58"><path d="M 0.46875 101.28125 L 70.101562 101.28125 L 70.101562 169.378906 L 0.46875 169.378906 Z M 0.46875 101.28125 " clip-rule="nonzero"/></clipPath><clipPath id="58cf198ccd"><path d="M 0.46875 0.28125 L 70.101562 0.28125 L 70.101562 68.378906 L 0.46875 68.378906 Z M 0.46875 0.28125 " clip-rule="nonzero"/></clipPath><clipPath id="f099ca79f8"><rect x="0" width="71" y="0" height="69"/></clipPath><clipPath id="5fbe514df3"><rect x="0" width="270" y="0" height="170"/></clipPath></defs><g clip-path="url(#518a6cdcfb)"><g mask="url(#90012926b2)"><g transform="matrix(1, 0, 0, 1, 0, 0)"><g clip-path="url(#fcd141045c)"><g clip-path="url(#32355eb3f5)"><g clip-path="url(#e76f8ed9cf)"><g transform="matrix(1, 0, 0, 1, 0, 0)"><g clip-path="url(#e0086ec863)"><g clip-path="url(#a4f74ab645)"><g clip-path="url(#0bc21470a3)"><path fill="#ffffff" d="M 0 0 L 340.226562 0 L 340.226562 340.226562 L 0 340.226562 Z M 0 0 " fill-opacity="1" fill-rule="nonzero"/></g></g></g></g></g></g><g clip-path="url(#2223884b8d)"><g clip-path="url(#64b300c9b9)"><path stroke-linecap="butt" transform="matrix(0.748355, 0, 0, 0.748355, 0.0000065, 0.00000000000002127)" fill="none" stroke-linejoin="miter" d="M 227.310998 -0.000000000000028422 C 101.770054 -0.000000000000028422 -0.00000868571 101.770063 -0.00000868571 227.311007 C -0.00000868571 352.851951 101.770054 454.627234 227.310998 454.627234 C 352.851943 454.627234 454.627225 352.851951 454.627225 227.311007 C 454.627225 101.770063 352.851943 -0.000000000000028422 227.310998 -0.000000000000028422 Z M 227.310998 -0.000000000000028422 " stroke="#6c694c" stroke-width="16" stroke-opacity="1" stroke-miterlimit="4"/></g></g></g></g></g></g><g transform="matrix(1, 0, 0, 1, 35, 85)"><g clip-path="url(#5fbe514df3)"><g clip-path="url(#13f13868bd)"><path stroke-linecap="butt" transform="matrix(1.036295, -0.000000000000000643, 0.000000000000000643, 1.036295, 33.211195, 0.848247)" fill="none" stroke-linejoin="miter" d="M -0.000248315 2.001001 L 196.666366 2.001001 " stroke="#000000" stroke-width="4" stroke-opacity="1" stroke-miterlimit="4"/></g><g clip-path="url(#a9b2b476b8)"><path stroke-linecap="butt" transform="matrix(0, 1.036295, -1.036295, 0, 237.012127, 2.9257)" fill="none" stroke-linejoin="miter" d="M 0.0000785249 1.998196 L 94.914506 1.998196 " stroke="#000000" stroke-width="4" stroke-opacity="1" stroke-miterlimit="4"/></g><g clip-path="url(#4d7d3e804f)"><path stroke-linecap="butt" transform="matrix(0, 1.036295, -1.036295, 0, 37.351514, 2.9257)" fill="none" stroke-linejoin="miter" d="M 0.0000785249 2.001524 L 94.914506 2.001524 " stroke="#000000" stroke-width="4" stroke-opacity="1" stroke-miterlimit="4"/></g><g clip-path="url(#96322ee2c8)"><g transform="matrix(1, 0, 0, 1, 200, 101)"><g clip-path="url(#405cd5ffac)"><g clip-path="url(#3a349019df)"><path fill="#000000" d="M 0.128906 0.28125 L 69.824219 0.28125 L 69.824219 68.378906 L 0.128906 68.378906 Z M 0.128906 0.28125 " fill-opacity="1" fill-rule="nonzero"/></g></g></g></g><path stroke-linecap="butt" transform="matrix(1.036295, 0, 0, 1.036295, 85.185838, 47.748713)" fill="none" stroke-linejoin="miter" d="M 0.00160397 4.999515 L 49.939107 4.999515 " stroke="#000000" stroke-width="10" stroke-opacity="1" stroke-miterlimit="4"/><path stroke-linecap="butt" transform="matrix(-0.00205665, -1.036293, 1.036293, -0.00205665, 133.013336, 136.61221)" fill="none" stroke-linejoin="miter" d="M -0.00123309 2.000012 L 82.591065 2.00184 " stroke="#000000" stroke-width="4" stroke-opacity="1" stroke-miterlimit="4"/><path stroke-linecap="butt" transform="matrix(0.00000000180868, -1.036295, 1.036295, 0.00000000180868, 160.515344, 86.251265)" fill="none" stroke-linejoin="miter" d="M 0.00122081 7.501451 L 48.197244 7.501451 " stroke="#85a271" stroke-width="15" stroke-opacity="1" stroke-miterlimit="4"/><path stroke-linecap="butt" transform="matrix(1.036295, 0, 0, 1.036295, 151.113972, 117.344373)" fill="none" stroke-linejoin="miter" d="M -0.000666885 2.00097 L 33.151533 2.00097 " stroke="#000000" stroke-width="4" stroke-opacity="1" stroke-miterlimit="4"/><g clip-path="url(#92a2970b58)"><g transform="matrix(1, 0, 0, 1, 0, 101)"><g clip-path="url(#f099ca79f8)"><g clip-path="url(#58cf198ccd)"><path fill="#85a271" d="M 0.46875 0.28125 L 70.160156 0.28125 L 70.160156 68.378906 L 0.46875 68.378906 Z M 0.46875 0.28125 " fill-opacity="1" fill-rule="nonzero"/></g></g></g></g></g></g></svg>